<svg width="12" height="13" viewBox="0 0 12 13" fill="none" xmlns="http://www.w3.org/2000/svg">
<path id="i" fill-rule="evenodd" clip-rule="evenodd" d="M0.48 6.4873C0.48 9.53098 2.95608 12.0073 6 12.0073C9.04392 12.0073 11.52 9.53098 11.52 6.4873C11.52 3.44362 9.04392 0.967305 6 0.967305C2.95608 0.967305 0.48 3.44362 0.48 6.4873ZM0 6.4873C0 3.17362 2.68632 0.487305 6 0.487305C9.31368 0.487305 12 3.17362 12 6.4873C12 9.80147 9.31368 12.4873 6 12.4873C2.68632 12.4873 0 9.80147 0 6.4873ZM6.03 4.30669C6.42744 4.30669 6.75 3.98413 6.75 3.58669C6.75 3.18877 6.42744 2.86717 6.03 2.86717C5.63256 2.86717 5.31 3.18877 5.31 3.58669C5.31 3.98413 5.63256 4.30669 6.03 4.30669ZM6.5189 5.26669V5.01445V4.78669H5.0789V5.26669H5.5589V9.34669H5.0789V9.82669H6.9989V9.34669H6.5189V5.26669Z" fill="#8A888A"/>
</svg>
